<svg id="圖層_3" data-name="圖層 3" xmlns="http://www.w3.org/2000/svg" viewBox="0 0 36 35"><defs><style>.cls-1{fill:#3b9fd6;}.cls-2{fill:#fff;}</style></defs><rect class="cls-1" width="36" height="35"/><path class="cls-2" d="M31.91,20a2.5,2.5,0,1,1,2.5-2.5A2.5,2.5,0,0,1,31.91,20Zm0-4a1.5,1.5,0,1,0,1.5,1.5A1.5,1.5,0,0,0,31.91,16Z"/><polygon class="cls-2" points="0 15.99 16.43 0 15.28 0 0 14.87 0 15.99"/><polygon class="cls-2" points="0 18.81 19.33 0 18.18 0 0 17.69 0 18.81"/><polygon class="cls-2" points="0 29.81 30.83 0 28.81 0 0 27.86 0 29.81"/><polygon class="cls-2" points="36 0 34.89 0 0 33.74 0 35 0.71 35 36 0.88 36 0"/><polygon class="cls-2" points="11.76 27.23 10.78 28.22 17.67 35 19.67 35 11.76 27.23"/><polygon class="cls-2" points="19.68 19.17 18.76 20.1 33.92 35 35.77 35 19.68 19.17"/><polygon class="cls-2" points="36 34.39 36 32.56 21 17.82 20.1 18.74 36 34.39"/><polygon class="cls-2" points="27.48 35 28.77 35 16.23 22.68 15.6 23.31 27.48 35"/><polygon class="cls-2" points="15.18 23.74 14.55 24.39 25.35 35 26.63 35 15.18 23.74"/></svg>