<?xml version="1.0" encoding="UTF-8"?>
<svg xmlns="http://www.w3.org/2000/svg" xmlns:xlink="http://www.w3.org/1999/xlink" width="280pt" height="228pt" viewBox="0 0 280 228" version="1.1">
<g id="surface1">
<path style=" stroke:none;fill-rule:nonzero;fill:rgb(13.72549%,9.411765%,8.235294%);fill-opacity:1;" d="M 83.734375 222.550781 C 83.4375 221.664062 82.777344 220.972656 81.9375 220.613281 C 81.542969 220.441406 80.601562 220.347656 80.144531 220.347656 L 77.007812 220.347656 C 76.550781 220.347656 75.609375 220.441406 75.214844 220.613281 C 74.378906 220.972656 73.707031 221.664062 73.40625 222.550781 C 73.359375 222.699219 73.3125 222.875 73.289062 223.054688 C 73.21875 223.402344 73.195312 223.769531 73.195312 224.117188 L 73.195312 224.128906 C 73.195312 224.492188 73.21875 224.871094 73.289062 225.21875 C 73.464844 226.34375 74.222656 227.238281 75.214844 227.664062 C 75.609375 227.824219 76.550781 227.910156 77.007812 227.910156 L 80.144531 227.910156 C 80.601562 227.910156 81.542969 227.824219 81.9375 227.664062 C 82.929688 227.238281 83.675781 226.34375 83.863281 225.21875 C 83.929688 224.871094 83.960938 224.492188 83.960938 224.128906 L 83.960938 224.117188 C 83.960938 223.769531 83.929688 223.402344 83.863281 223.054688 C 83.847656 222.875 83.792969 222.699219 83.734375 222.550781 M 81.125 224.128906 C 81.125 225.542969 79.988281 226.703125 78.566406 226.703125 C 77.152344 226.703125 75.992188 225.554688 75.992188 224.128906 L 75.992188 224.117188 C 75.992188 223.53125 76.195312 222.976562 76.519531 222.550781 C 76.984375 221.9375 77.726562 221.542969 78.566406 221.542969 C 79.40625 221.542969 80.132812 221.9375 80.601562 222.550781 C 80.921875 222.976562 81.125 223.53125 81.125 224.117188 Z M 81.125 224.128906 "/>
<path style=" stroke:none;fill-rule:nonzero;fill:rgb(13.72549%,9.411765%,8.235294%);fill-opacity:1;" d="M 67.429688 222.550781 L 66.832031 224.117188 L 65.914062 226.5 L 64.992188 224.117188 L 64.394531 222.550781 L 63.542969 220.355469 L 60.242188 220.355469 L 60.242188 227.910156 L 62.601562 227.910156 L 62.601562 223.007812 L 63.03125 224.117188 L 64.476562 227.910156 L 67.324219 227.910156 L 68.785156 224.117188 L 69.214844 223.007812 L 69.214844 227.910156 L 71.570312 227.910156 L 71.570312 220.355469 L 68.28125 220.355469 Z M 67.429688 222.550781 "/>
<path style=" stroke:none;fill-rule:nonzero;fill:rgb(13.72549%,9.411765%,8.235294%);fill-opacity:1;" d="M 57.941406 224.121094 C 58.347656 223.71875 58.601562 223.171875 58.601562 222.550781 C 58.601562 221.355469 57.605469 220.371094 56.398438 220.355469 L 49.160156 220.355469 L 49.160156 227.914062 L 51.996094 227.914062 L 51.996094 224.75 L 53.730469 224.75 L 55.765625 227.914062 L 58.613281 227.914062 L 56.578125 224.742188 C 57.105469 224.703125 57.582031 224.476562 57.941406 224.121094 M 51.996094 221.558594 L 54.761719 221.558594 C 55.304688 221.558594 55.753906 221.996094 55.753906 222.550781 C 55.753906 223.101562 55.304688 223.539062 54.761719 223.539062 L 51.996094 223.539062 Z M 51.996094 221.558594 "/>
<path style=" stroke:none;fill-rule:nonzero;fill:rgb(13.72549%,9.411765%,8.235294%);fill-opacity:1;" d="M 47.359375 222.550781 C 47.058594 221.664062 46.398438 220.972656 45.5625 220.613281 C 45.167969 220.441406 44.222656 220.347656 43.765625 220.347656 L 40.632812 220.347656 C 40.175781 220.347656 39.234375 220.441406 38.835938 220.613281 C 38 220.972656 37.328125 221.664062 37.027344 222.550781 C 36.980469 222.699219 36.933594 222.875 36.910156 223.054688 C 36.839844 223.402344 36.8125 223.769531 36.8125 224.117188 L 36.8125 224.128906 C 36.8125 224.492188 36.839844 224.871094 36.910156 225.21875 C 37.089844 226.34375 37.84375 227.238281 38.835938 227.664062 C 39.234375 227.824219 40.175781 227.910156 40.632812 227.910156 L 43.765625 227.910156 C 44.222656 227.910156 45.167969 227.824219 45.5625 227.664062 C 46.554688 227.238281 47.296875 226.34375 47.484375 225.21875 C 47.546875 224.871094 47.582031 224.492188 47.582031 224.128906 L 47.582031 224.117188 C 47.582031 223.769531 47.546875 223.402344 47.484375 223.054688 C 47.464844 222.875 47.414062 222.699219 47.359375 222.550781 M 44.746094 224.128906 C 44.746094 225.542969 43.605469 226.703125 42.1875 226.703125 C 40.773438 226.703125 39.609375 225.554688 39.609375 224.128906 L 39.609375 224.117188 C 39.609375 223.53125 39.816406 222.976562 40.140625 222.550781 C 40.605469 221.9375 41.347656 221.542969 42.1875 221.542969 C 43.027344 221.542969 43.753906 221.9375 44.222656 222.550781 C 44.542969 222.976562 44.746094 223.53125 44.746094 224.117188 Z M 44.746094 224.128906 "/>
<path style=" stroke:none;fill-rule:nonzero;fill:rgb(13.72549%,9.411765%,8.235294%);fill-opacity:1;" d="M 26.640625 222.535156 C 26.605469 222.707031 26.59375 222.875 26.59375 223.046875 L 26.59375 227.914062 L 29.394531 227.914062 L 29.394531 224.726562 L 35.292969 224.726562 L 35.292969 223.519531 L 29.429688 223.519531 C 29.507812 223.152344 29.667969 222.8125 29.894531 222.535156 C 30.363281 221.929688 31.117188 221.542969 31.929688 221.542969 L 35.480469 221.527344 L 35.480469 220.335938 L 29.320312 220.335938 C 27.980469 220.335938 26.882812 221.277344 26.640625 222.535156 "/>
<path style=" stroke:none;fill-rule:nonzero;fill:rgb(13.72549%,9.411765%,8.235294%);fill-opacity:1;" d="M 104.671875 224.128906 L 103.773438 222.535156 L 102.539062 220.335938 L 99.691406 220.335938 L 98.460938 222.535156 L 97.5625 224.128906 L 96.664062 225.734375 L 95.441406 227.910156 L 98.277344 227.910156 L 99.011719 226.609375 L 103.234375 226.609375 L 103.949219 227.910156 L 106.785156 227.910156 L 105.566406 225.734375 Z M 101.125 222.859375 L 102.539062 225.398438 L 99.691406 225.398438 L 100.410156 224.128906 Z M 101.125 222.859375 "/>
<path style=" stroke:none;fill-rule:nonzero;fill:rgb(13.72549%,9.411765%,8.235294%);fill-opacity:1;" d="M 92.710938 223.519531 L 89.300781 223.519531 C 88.75 223.519531 88.308594 223.074219 88.308594 222.53125 C 88.308594 221.988281 88.75 221.542969 89.300781 221.542969 L 94.410156 221.542969 L 94.410156 220.335938 L 87.636719 220.335938 C 86.429688 220.335938 85.457031 221.328125 85.457031 222.53125 C 85.457031 223.160156 85.710938 223.710938 86.117188 224.105469 C 86.511719 224.492188 87.054688 224.722656 87.636719 224.722656 L 89.371094 224.726562 L 91.0625 224.722656 L 91.0625 224.726562 C 91.601562 224.726562 92.042969 225.167969 92.042969 225.707031 C 92.042969 226.261719 91.601562 226.703125 91.0625 226.703125 L 85.953125 226.703125 L 85.953125 227.910156 L 92.710938 227.910156 C 93.917969 227.910156 94.902344 226.917969 94.902344 225.707031 C 94.902344 225.074219 94.628906 224.5 94.199219 224.105469 C 93.800781 223.734375 93.285156 223.519531 92.710938 223.519531 "/>
<path style=" stroke:none;fill-rule:nonzero;fill:rgb(13.72549%,9.411765%,8.235294%);fill-opacity:1;" d="M 232.457031 222.515625 C 232.15625 221.632812 231.492188 220.941406 230.652344 220.578125 C 230.257812 220.414062 229.316406 220.316406 228.859375 220.316406 L 225.71875 220.316406 C 225.265625 220.316406 224.324219 220.414062 223.929688 220.578125 C 223.085938 220.941406 222.414062 221.632812 222.117188 222.515625 C 222.070312 222.675781 222.023438 222.84375 222 223.023438 C 221.929688 223.375 221.902344 223.742188 221.902344 224.089844 L 221.902344 224.097656 C 221.902344 224.460938 221.929688 224.84375 222 225.191406 C 222.175781 226.316406 222.9375 227.21875 223.929688 227.632812 C 224.324219 227.800781 225.265625 227.882812 225.71875 227.882812 L 228.859375 227.882812 C 229.316406 227.882812 230.257812 227.800781 230.652344 227.632812 C 231.644531 227.21875 232.390625 226.316406 232.578125 225.191406 C 232.640625 224.84375 232.675781 224.460938 232.675781 224.097656 L 232.675781 224.089844 C 232.675781 223.742188 232.640625 223.375 232.578125 223.023438 C 232.558594 222.84375 232.507812 222.675781 232.457031 222.515625 M 229.84375 224.097656 C 229.84375 225.515625 228.703125 226.671875 227.277344 226.671875 C 225.871094 226.671875 224.703125 225.523438 224.703125 224.097656 L 224.703125 224.089844 C 224.703125 223.5 224.90625 222.949219 225.230469 222.515625 C 225.695312 221.910156 226.441406 221.511719 227.277344 221.511719 C 228.117188 221.511719 228.84375 221.910156 229.316406 222.515625 C 229.632812 222.949219 229.84375 223.5 229.84375 224.089844 Z M 229.84375 224.097656 "/>
<path style=" stroke:none;fill-rule:nonzero;fill:rgb(13.72549%,9.411765%,8.235294%);fill-opacity:1;" d="M 252.5625 220.324219 L 245.542969 220.324219 L 245.542969 227.882812 L 248.378906 227.882812 L 248.378906 225.171875 L 252.578125 225.171875 C 253.429688 225.171875 254.171875 224.746094 254.601562 224.089844 C 254.855469 223.703125 254.996094 223.25 254.996094 222.757812 C 254.996094 222.675781 254.996094 222.605469 254.984375 222.515625 C 254.867188 221.289062 253.824219 220.324219 252.5625 220.324219 M 248.378906 221.523438 L 250.941406 221.523438 C 251.539062 221.523438 252.03125 221.957031 252.136719 222.515625 C 252.148438 222.59375 252.160156 222.667969 252.160156 222.746094 C 252.160156 223.429688 251.621094 223.953125 250.941406 223.964844 L 248.378906 223.964844 Z M 248.378906 221.523438 "/>
<path style=" stroke:none;fill-rule:nonzero;fill:rgb(13.72549%,9.411765%,8.235294%);fill-opacity:1;" d="M 220.148438 224.089844 C 220.554688 223.695312 220.808594 223.144531 220.808594 222.515625 C 220.808594 221.320312 219.8125 220.34375 218.605469 220.328125 L 211.363281 220.328125 L 211.363281 227.882812 L 214.203125 227.882812 L 214.203125 224.722656 L 215.9375 224.722656 L 217.96875 227.882812 L 220.820312 227.882812 L 218.78125 224.707031 C 219.3125 224.675781 219.792969 224.449219 220.148438 224.089844 M 214.203125 221.523438 L 216.964844 221.523438 C 217.519531 221.523438 217.957031 221.96875 217.957031 222.515625 C 217.957031 223.070312 217.519531 223.511719 216.964844 223.511719 L 214.203125 223.511719 Z M 214.203125 221.523438 "/>
<path style=" stroke:none;fill-rule:nonzero;fill:rgb(13.72549%,9.411765%,8.235294%);fill-opacity:1;" d="M 240.867188 222.515625 L 240.867188 224.78125 C 240.867188 225.851562 240.027344 226.6875 238.964844 226.6875 C 237.925781 226.6875 237.085938 225.851562 237.085938 224.78125 L 237.085938 220.328125 L 234.234375 220.328125 L 234.234375 225.179688 C 234.234375 226.671875 235.46875 227.882812 236.980469 227.882812 L 240.972656 227.882812 C 242.46875 227.882812 243.695312 226.671875 243.695312 225.179688 L 243.695312 220.328125 L 240.867188 220.328125 Z M 240.867188 222.515625 "/>
<path style=" stroke:none;fill-rule:nonzero;fill:rgb(13.72549%,9.411765%,8.235294%);fill-opacity:1;" d="M 200.847656 222.507812 C 200.789062 222.667969 200.757812 222.832031 200.71875 223.015625 C 200.648438 223.371094 200.613281 223.742188 200.613281 224.101562 C 200.613281 224.464844 200.648438 224.820312 200.71875 225.179688 C 200.757812 225.351562 200.804688 225.539062 200.863281 225.707031 C 201.316406 226.984375 202.546875 227.882812 203.964844 227.882812 L 209.601562 227.882812 L 209.601562 223.492188 L 205.339844 223.492188 L 205.339844 224.699219 L 206.753906 224.699219 L 206.753906 226.890625 C 206.597656 226.914062 206.445312 226.941406 206.289062 226.941406 C 205.316406 226.941406 204.464844 226.445312 203.953125 225.707031 C 203.640625 225.25 203.449219 224.699219 203.449219 224.101562 L 203.449219 224.089844 C 203.449219 223.5 203.628906 222.964844 203.925781 222.507812 C 204.441406 221.753906 205.304688 221.253906 206.289062 221.253906 L 209.601562 221.253906 L 209.601562 220.304688 L 203.964844 220.304688 C 202.539062 220.304688 201.308594 221.207031 200.847656 222.507812 "/>
<path style=" stroke:none;fill-rule:nonzero;fill:rgb(13.72549%,9.411765%,8.235294%);fill-opacity:1;" d="M 172.691406 222.535156 C 172.640625 222.695312 172.585938 222.859375 172.550781 223.046875 C 172.480469 223.402344 172.445312 223.769531 172.445312 224.128906 C 172.445312 224.492188 172.480469 224.847656 172.550781 225.210938 C 172.585938 225.390625 172.640625 225.566406 172.691406 225.730469 C 173.175781 227.015625 174.40625 227.914062 175.808594 227.914062 L 180.964844 227.914062 L 180.964844 226.714844 L 177.871094 226.699219 C 177.0625 226.699219 176.335938 226.320312 175.867188 225.730469 C 175.511719 225.300781 175.292969 224.742188 175.292969 224.128906 L 175.292969 224.121094 C 175.292969 223.519531 175.496094 222.964844 175.84375 222.535156 C 176.324219 221.929688 177.050781 221.542969 177.871094 221.542969 L 180.964844 221.527344 L 180.964844 220.335938 L 175.808594 220.335938 C 174.394531 220.335938 173.160156 221.234375 172.691406 222.535156 "/>
<path style=" stroke:none;fill-rule:nonzero;fill:rgb(13.72549%,9.411765%,8.235294%);fill-opacity:1;" d="M 189.703125 223.519531 L 186.289062 223.519531 C 185.742188 223.519531 185.304688 223.074219 185.304688 222.53125 C 185.304688 221.988281 185.742188 221.542969 186.289062 221.542969 L 191.402344 221.542969 L 191.402344 220.335938 L 184.628906 220.335938 C 183.417969 220.335938 182.449219 221.328125 182.449219 222.53125 C 182.449219 223.160156 182.703125 223.710938 183.109375 224.105469 C 183.5 224.492188 184.042969 224.722656 184.628906 224.722656 L 186.363281 224.726562 L 188.054688 224.722656 L 188.054688 224.726562 C 188.59375 224.726562 189.035156 225.167969 189.035156 225.707031 C 189.035156 226.261719 188.59375 226.703125 188.054688 226.703125 L 182.941406 226.703125 L 182.941406 227.910156 L 189.703125 227.910156 C 190.914062 227.910156 191.894531 226.917969 191.894531 225.707031 C 191.894531 225.074219 191.613281 224.5 191.1875 224.105469 C 190.792969 223.734375 190.273438 223.519531 189.703125 223.519531 "/>
<path style=" stroke:none;fill-rule:nonzero;fill:rgb(13.72549%,9.411765%,8.235294%);fill-opacity:1;" d="M 121.886719 220.351562 L 114.867188 220.351562 L 114.867188 227.914062 L 117.703125 227.914062 L 117.703125 225.199219 L 121.898438 225.199219 C 122.75 225.199219 123.492188 224.773438 123.925781 224.121094 C 124.175781 223.730469 124.316406 223.28125 124.316406 222.789062 C 124.316406 222.699219 124.316406 222.632812 124.304688 222.550781 C 124.1875 221.316406 123.148438 220.351562 121.886719 220.351562 M 117.703125 221.558594 L 120.261719 221.558594 C 120.859375 221.558594 121.351562 221.984375 121.457031 222.550781 C 121.46875 222.621094 121.484375 222.695312 121.484375 222.777344 C 121.484375 223.460938 120.945312 223.984375 120.261719 224 L 117.703125 224 Z M 117.703125 221.558594 "/>
<path style=" stroke:none;fill-rule:nonzero;fill:rgb(13.72549%,9.411765%,8.235294%);fill-opacity:1;" d="M 156.652344 221.558594 L 159.96875 221.558594 L 159.96875 227.914062 L 162.792969 227.914062 L 162.792969 221.558594 L 166.101562 221.558594 L 166.101562 220.355469 L 156.652344 220.355469 Z M 156.652344 221.558594 "/>
<path style=" stroke:none;fill-rule:nonzero;fill:rgb(13.72549%,9.411765%,8.235294%);fill-opacity:1;" d="M 143.570312 224.128906 L 142.671875 222.535156 L 141.441406 220.335938 L 138.597656 220.335938 L 137.355469 222.535156 L 136.46875 224.128906 L 135.570312 225.734375 L 134.34375 227.910156 L 137.179688 227.910156 L 137.910156 226.609375 L 142.136719 226.609375 L 142.855469 227.910156 L 145.6875 227.910156 L 144.464844 225.734375 Z M 140.027344 222.859375 L 141.441406 225.398438 L 138.597656 225.398438 Z M 140.027344 222.859375 "/>
<path style=" stroke:none;fill-rule:nonzero;fill:rgb(13.72549%,9.411765%,8.235294%);fill-opacity:1;" d="M 153.535156 223.519531 L 150.125 223.519531 C 149.574219 223.519531 149.132812 223.074219 149.132812 222.53125 C 149.132812 221.988281 149.574219 221.542969 150.125 221.542969 L 155.238281 221.542969 L 155.238281 220.335938 L 148.464844 220.335938 C 147.253906 220.335938 146.285156 221.328125 146.285156 222.53125 C 146.285156 223.160156 146.539062 223.710938 146.941406 224.105469 C 147.335938 224.492188 147.878906 224.722656 148.464844 224.722656 L 150.195312 224.726562 L 151.890625 224.722656 L 151.890625 224.726562 C 152.425781 224.726562 152.867188 225.167969 152.867188 225.707031 C 152.867188 226.261719 152.425781 226.703125 151.890625 226.703125 L 146.78125 226.703125 L 146.78125 227.910156 L 153.535156 227.910156 C 154.742188 227.910156 155.730469 226.917969 155.730469 225.707031 C 155.730469 225.074219 155.449219 224.5 155.023438 224.105469 C 154.625 223.734375 154.109375 223.519531 153.535156 223.519531 "/>
<path style=" stroke:none;fill-rule:nonzero;fill:rgb(13.72549%,9.411765%,8.235294%);fill-opacity:1;" d="M 129.003906 225.730469 C 128.691406 225.386719 128.5 224.976562 128.5 224.578125 L 128.5 220.34375 L 125.667969 220.34375 L 125.667969 223.652344 C 125.667969 223.808594 125.667969 223.972656 125.679688 224.128906 C 125.691406 224.492188 125.714844 224.835938 125.753906 225.171875 C 125.773438 225.367188 125.8125 225.558594 125.863281 225.730469 C 126.265625 227.101562 127.558594 228.019531 128.992188 227.914062 L 133.671875 227.914062 L 133.671875 226.714844 L 131.074219 226.714844 C 130.285156 226.714844 129.492188 226.300781 129.003906 225.730469 "/>
<path style=" stroke:none;fill-rule:nonzero;fill:rgb(13.72549%,9.411765%,8.235294%);fill-opacity:1;" d="M 167.890625 222.542969 L 167.890625 227.910156 L 170.722656 227.910156 L 170.722656 220.339844 L 167.890625 220.339844 Z M 167.890625 222.542969 "/>
<path style=" stroke:none;fill-rule:nonzero;fill:rgb(13.72549%,9.411765%,8.235294%);fill-opacity:1;" d="M 112.632812 196.527344 L 114.65625 176.8125 L 122.082031 176.8125 L 120.125 196.527344 Z M 112.632812 196.527344 "/>
<path style=" stroke:none;fill-rule:nonzero;fill:rgb(13.72549%,9.411765%,8.235294%);fill-opacity:1;" d="M 118.738281 176.8125 L 128.078125 176.8125 L 128.078125 180.320312 L 118.738281 180.320312 Z M 118.738281 176.8125 "/>
<path style=" stroke:none;fill-rule:nonzero;fill:rgb(13.72549%,9.411765%,8.235294%);fill-opacity:1;" d="M 119.550781 183.1875 L 127.488281 183.1875 L 127.488281 186.722656 L 119.550781 186.722656 Z M 119.550781 183.1875 "/>
<path style=" stroke:none;fill-rule:nonzero;fill:rgb(13.72549%,9.411765%,8.235294%);fill-opacity:1;" d="M 119.242188 189.644531 L 128.617188 189.644531 L 128.617188 193.175781 L 119.242188 193.175781 Z M 119.242188 189.644531 "/>
<path style=" stroke:none;fill-rule:nonzero;fill:rgb(13.72549%,9.411765%,8.235294%);fill-opacity:1;" d="M 126.007812 197.183594 L 126.007812 176.8125 L 133.507812 176.8125 L 133.507812 195.808594 Z M 126.007812 197.183594 "/>
<path style=" stroke:none;fill-rule:nonzero;fill:rgb(13.72549%,9.411765%,8.235294%);fill-opacity:1;" d="M 29.453125 212.128906 L 73.238281 212.128906 L 73.238281 195.980469 L 29.453125 195.980469 Z M 39.527344 200.011719 L 63.167969 200.011719 L 63.167969 208.132812 L 39.527344 208.132812 Z M 57.449219 180.0625 L 63.53125 188.648438 L 39.527344 188.648438 L 46.675781 178.8125 L 38.386719 175.902344 L 29.105469 188.648438 L 26.59375 188.648438 L 26.59375 192.65625 L 66.441406 192.65625 L 69.054688 195.773438 L 76.457031 192.292969 L 64.714844 176.347656 Z M 171.855469 182.703125 L 171.855469 175.902344 L 146.160156 186.59375 L 152.023438 190.941406 Z M 95.320312 191.578125 L 92.960938 191.578125 L 92.960938 186.769531 L 86.898438 186.769531 L 86.898438 195.132812 L 95.175781 195.132812 L 95.058594 198.34375 L 102.621094 198.34375 L 102.738281 195.132812 L 111.605469 195.132812 L 111.605469 191.578125 L 111.582031 191.578125 L 111.582031 186.769531 L 105.515625 186.769531 L 105.515625 191.578125 L 102.871094 191.578125 L 103.160156 184.339844 L 111.488281 184.339844 L 112.628906 180.785156 L 110.113281 180.785156 L 110.941406 176.8125 L 103.886719 176.8125 L 103.054688 180.785156 L 95.320312 180.785156 L 94.484375 176.8125 L 87.433594 176.8125 L 88.261719 180.785156 L 86.050781 180.785156 L 86.050781 184.339844 L 95.601562 184.339844 Z M 171.871094 182.703125 L 191.703125 190.941406 L 197.558594 186.59375 L 171.871094 175.902344 Z M 245.125 202.5 L 253.300781 202.5 L 254.308594 199.3125 L 234.570312 199.3125 L 234.570312 197.21875 L 251.695312 197.21875 L 252.703125 194.035156 L 234.570312 194.035156 L 234.570312 191.949219 L 252.472656 191.949219 L 253.472656 188.765625 L 244.144531 188.765625 L 245.050781 184.839844 L 253.300781 184.839844 L 254.308594 181.652344 L 249.863281 181.652344 L 250.835938 177.007812 L 243.496094 177.007812 L 242.523438 181.652344 L 239.507812 181.652344 L 239.507812 177.007812 L 232.167969 177.007812 L 232.167969 181.652344 L 228.546875 181.652344 L 228.546875 177.007812 L 221.203125 177.007812 L 221.203125 181.652344 L 218.023438 181.652344 L 217.046875 177.007812 L 209.703125 177.007812 L 210.679688 181.652344 L 206.683594 181.652344 L 206.683594 184.839844 L 215.785156 184.839844 L 216.691406 188.765625 L 207.394531 188.765625 L 207.394531 191.949219 L 226.328125 191.949219 L 226.328125 194.035156 L 208.285156 194.035156 L 208.285156 197.21875 L 226.328125 197.21875 L 226.328125 199.3125 L 206.683594 199.3125 L 206.683594 202.5 L 215.867188 202.5 L 206.230469 209.726562 L 212.34375 212.933594 L 226.328125 202.5 L 226.328125 212.277344 L 234.570312 212.277344 L 234.570312 202.5 L 234.664062 202.5 L 248.652344 212.933594 L 254.765625 209.726562 Z M 224.765625 188.765625 L 223.859375 184.839844 L 236.976562 184.839844 L 236.074219 188.765625 Z M 115.25 204.71875 L 131.1875 204.71875 L 132.457031 200.71875 L 115.25 200.71875 L 115.25 197.789062 L 105.183594 197.789062 L 105.183594 200.71875 L 88.410156 200.71875 L 88.410156 204.71875 L 105.183594 204.71875 L 105.183594 208.136719 L 86.054688 208.136719 L 86.054688 212.136719 L 133.175781 212.136719 L 134.445312 208.136719 L 115.25 208.136719 Z M 178.070312 200.273438 L 190.847656 200.273438 L 192.089844 196.34375 L 178.070312 196.34375 L 178.070312 188.105469 L 168.597656 188.105469 L 168.597656 207.816406 L 161.90625 207.816406 L 161.90625 193.511719 L 153.582031 193.511719 L 153.582031 207.816406 L 148.121094 207.816406 L 148.121094 211.761719 L 194.464844 211.761719 L 195.710938 207.816406 L 178.070312 207.816406 Z M 178.070312 200.273438 "/>
<path style=" stroke:none;fill-rule:nonzero;fill:rgb(0%,30.196078%,62.745098%);fill-opacity:1;" d="M 76.503906 119.746094 C 75.023438 118.269531 72.613281 118.269531 71.132812 119.746094 C 71.015625 119.867188 70.921875 120 70.820312 120.125 C 70.535156 120.09375 70.257812 120.074219 69.992188 120.074219 C 68.257812 120.074219 67.222656 120.742188 66.660156 121.304688 C 64.039062 123.921875 65.925781 129.273438 69.609375 134.457031 C 69.066406 135.226562 68.554688 136 68.097656 136.761719 C 68.957031 136.851562 69.746094 137.214844 70.371094 137.832031 C 70.445312 137.90625 70.503906 137.996094 70.574219 138.082031 C 70.828125 137.660156 71.105469 137.226562 71.398438 136.789062 C 72.308594 137.890625 73.277344 138.96875 74.292969 139.980469 C 75.335938 141.03125 76.40625 142.003906 77.484375 142.890625 C 74.320312 145.027344 71.613281 146.035156 69.992188 146.035156 C 69.367188 146.035156 68.914062 145.902344 68.640625 145.628906 C 68.371094 145.363281 68.234375 144.90625 68.234375 144.28125 C 68.234375 144.273438 68.238281 144.265625 68.238281 144.261719 C 68.050781 144.285156 67.871094 144.3125 67.683594 144.3125 C 66.882812 144.3125 66.125 144.058594 65.492188 143.605469 C 65.335938 145.226562 65.664062 146.621094 66.660156 147.613281 C 67.222656 148.175781 68.257812 148.84375 69.992188 148.84375 C 72.609375 148.84375 76.148438 147.300781 79.808594 144.683594 C 80.5625 145.214844 81.304688 145.710938 82.039062 146.148438 C 82.027344 146.273438 82.003906 146.394531 82.003906 146.519531 C 82.003906 147.539062 82.394531 148.488281 83.113281 149.207031 C 83.828125 149.925781 84.785156 150.320312 85.796875 150.320312 C 86.816406 150.320312 87.765625 149.925781 88.484375 149.207031 C 88.621094 149.074219 88.730469 148.925781 88.839844 148.777344 C 89.105469 148.804688 89.378906 148.84375 89.632812 148.84375 C 91.367188 148.84375 92.402344 148.175781 92.964844 147.613281 C 93.523438 147.054688 94.195312 146.023438 94.195312 144.28125 C 94.195312 141.660156 92.648438 138.121094 90.03125 134.457031 C 90.558594 133.714844 91.042969 132.984375 91.480469 132.257812 C 90.628906 132.167969 89.835938 131.804688 89.21875 131.1875 C 89.144531 131.109375 89.078125 131.019531 89.007812 130.933594 C 88.773438 131.324219 88.511719 131.722656 88.238281 132.128906 C 87.347656 131.050781 86.378906 129.988281 85.332031 128.941406 C 84.28125 127.894531 83.210938 126.917969 82.136719 126.023438 C 85.304688 123.890625 88.015625 122.875 89.632812 122.875 C 90.257812 122.875 90.707031 123.015625 90.984375 123.285156 C 91.273438 123.578125 91.410156 124.085938 91.390625 124.753906 C 91.554688 124.734375 91.730469 124.703125 91.910156 124.703125 C 92.726562 124.703125 93.5 124.976562 94.148438 125.449219 C 94.179688 125.171875 94.195312 124.898438 94.195312 124.636719 C 94.195312 122.902344 93.523438 121.867188 92.964844 121.304688 C 92.402344 120.742188 91.367188 120.074219 89.632812 120.074219 C 87.011719 120.074219 83.472656 121.617188 79.808594 124.234375 C 79.058594 123.699219 78.3125 123.210938 77.582031 122.765625 C 77.675781 121.6875 77.328125 120.570312 76.503906 119.746094 M 73.816406 119.4375 C 74.617188 119.4375 75.371094 119.746094 75.9375 120.316406 C 77.105469 121.480469 77.105469 123.382812 75.9375 124.550781 C 75.371094 125.117188 74.617188 125.425781 73.816406 125.425781 C 73.015625 125.425781 72.265625 125.117188 71.695312 124.550781 C 71.132812 123.984375 70.820312 123.230469 70.820312 122.433594 C 70.820312 121.632812 71.132812 120.878906 71.695312 120.316406 C 72.265625 119.746094 73.015625 119.4375 73.816406 119.4375 M 85.796875 149.519531 C 84.996094 149.519531 84.246094 149.207031 83.683594 148.640625 C 83.113281 148.078125 82.800781 147.324219 82.800781 146.519531 C 82.800781 145.722656 83.113281 144.972656 83.683594 144.402344 C 84.246094 143.835938 84.996094 143.527344 85.796875 143.527344 C 86.597656 143.527344 87.355469 143.835938 87.917969 144.402344 C 88.484375 144.972656 88.796875 145.722656 88.796875 146.519531 C 88.796875 147.324219 88.484375 148.078125 87.917969 148.640625 C 87.355469 149.207031 86.597656 149.519531 85.796875 149.519531 M 90.984375 145.628906 C 90.707031 145.902344 90.257812 146.035156 89.632812 146.035156 L 89.550781 146.035156 C 89.445312 145.207031 89.085938 144.441406 88.484375 143.835938 C 87.765625 143.117188 86.816406 142.722656 85.796875 142.722656 C 84.878906 142.722656 84.019531 143.066406 83.335938 143.65625 C 82.941406 143.421875 82.542969 143.164062 82.136719 142.890625 C 83.210938 142 84.285156 141.03125 85.332031 139.980469 C 86.378906 138.933594 87.347656 137.863281 88.238281 136.785156 C 91.171875 141.128906 91.992188 144.617188 90.984375 145.628906 M 83.347656 130.917969 C 84.550781 132.121094 85.601562 133.304688 86.523438 134.457031 C 85.601562 135.613281 84.550781 136.796875 83.347656 138 C 82.148438 139.203125 80.960938 140.246094 79.808594 141.171875 C 78.660156 140.246094 77.472656 139.195312 76.273438 138 C 75.070312 136.796875 74.023438 135.617188 73.105469 134.464844 C 74.019531 133.316406 75.066406 132.125 76.273438 130.917969 C 77.476562 129.71875 78.660156 128.671875 79.8125 127.75 C 80.960938 128.671875 82.148438 129.71875 83.347656 130.917969 M 74.292969 128.941406 C 73.273438 129.960938 72.296875 131.035156 71.386719 132.144531 C 69.242188 128.972656 68.234375 126.265625 68.234375 124.636719 C 68.234375 124.011719 68.371094 123.554688 68.640625 123.285156 C 68.914062 123.015625 69.367188 122.875 69.992188 122.875 C 70.011719 122.875 70.039062 122.882812 70.0625 122.890625 C 70.164062 123.730469 70.527344 124.511719 71.132812 125.117188 C 71.847656 125.839844 72.800781 126.226562 73.816406 126.226562 C 74.746094 126.226562 75.617188 125.882812 76.3125 125.277344 C 76.695312 125.507812 77.085938 125.761719 77.480469 126.023438 C 76.40625 126.917969 75.335938 127.894531 74.292969 128.941406 "/>
<path style=" stroke:none;fill-rule:nonzero;fill:rgb(0%,30.196078%,62.745098%);fill-opacity:1;" d="M 113.628906 69.773438 L 126.316406 69.773438 L 126.316406 59.109375 L 136.980469 59.109375 L 136.980469 46.453125 L 126.316406 46.453125 L 126.316406 35.789062 L 113.628906 35.789062 L 113.628906 46.453125 L 102.96875 46.453125 L 102.96875 59.109375 L 113.628906 59.109375 Z M 106.984375 55.125 L 106.984375 50.433594 L 117.609375 50.433594 L 117.609375 39.769531 L 122.335938 39.769531 L 122.335938 50.433594 L 132.964844 50.433594 L 132.964844 55.125 L 122.335938 55.125 L 122.335938 65.789062 L 117.609375 65.789062 L 117.609375 55.125 Z M 106.984375 55.125 "/>
<path style=" stroke:none;fill-rule:nonzero;fill:rgb(0%,30.196078%,62.745098%);fill-opacity:1;" d="M 53.335938 50.773438 L 53.335938 43.449219 L 39.976562 34.101562 L 26.648438 43.449219 L 26.648438 50.773438 L 27.015625 51.042969 L 29.511719 52.800781 L 27.050781 54.523438 L 26.648438 54.792969 L 26.648438 62.113281 L 38.050781 70.109375 L 39.976562 71.460938 L 41.894531 70.109375 L 53.335938 62.113281 L 53.335938 54.792969 L 52.933594 54.523438 L 50.433594 52.800781 L 52.960938 51.042969 Z M 39.976562 40.042969 L 47.164062 45.105469 L 48.648438 46.152344 L 48.648438 48.78125 L 46.652344 50.132812 L 39.976562 45.441406 L 33.292969 50.132812 L 31.304688 48.78125 L 31.304688 46.152344 L 32.789062 45.105469 Z M 39.976562 65.519531 L 32.753906 60.496094 L 31.304688 59.480469 L 31.304688 56.78125 L 33.292969 55.429688 L 39.976562 60.125 L 46.652344 55.429688 L 48.648438 56.78125 L 48.648438 59.480469 L 47.199219 60.496094 Z M 42.875 52.800781 L 40.378906 54.523438 L 39.976562 54.792969 L 39.570312 54.523438 L 37.105469 52.800781 L 39.601562 51.042969 L 39.976562 50.773438 L 40.34375 51.042969 Z M 42.875 52.800781 "/>
<path style=" stroke:none;fill-rule:nonzero;fill:rgb(0%,30.196078%,62.745098%);fill-opacity:1;" d="M 73.3125 91.882812 L 78.777344 97.347656 L 79.988281 98.5625 L 81.207031 97.347656 L 86.605469 91.882812 L 86.605469 86.582031 L 91.96875 86.582031 L 92.308594 86.246094 L 96.964844 81.625 L 98.652344 79.9375 L 96.894531 78.179688 L 92.269531 73.558594 L 91.96875 73.253906 L 86.605469 73.253906 L 86.605469 67.882812 L 79.988281 61.238281 L 73.3125 67.882812 L 73.3125 73.253906 L 67.980469 73.253906 L 61.535156 79.699219 L 61.300781 79.9375 L 62.980469 81.625 L 67.640625 86.246094 L 67.980469 86.582031 L 73.3125 86.582031 Z M 77.96875 69.84375 L 79.988281 67.824219 L 81.980469 69.84375 L 81.980469 73.253906 L 77.96875 73.253906 Z M 77.96875 81.625 L 77.96875 77.910156 L 81.980469 77.910156 L 81.980469 81.886719 L 77.96875 81.886719 Z M 91.832031 79.699219 L 92.070312 79.9375 L 90.3125 81.625 L 90.046875 81.886719 L 86.605469 81.886719 L 86.605469 77.910156 L 90.046875 77.910156 L 90.3125 78.179688 Z M 67.875 79.9375 L 68.117188 79.699219 L 69.632812 78.179688 L 69.898438 77.910156 L 73.3125 77.910156 L 73.3125 81.886719 L 69.898438 81.886719 L 69.632812 81.625 Z M 77.96875 86.582031 L 81.980469 86.582031 L 81.980469 89.957031 L 79.988281 91.984375 L 77.96875 89.957031 Z M 77.96875 86.582031 "/>
<path style=" stroke:none;fill-rule:nonzero;fill:rgb(0%,30.196078%,62.745098%);fill-opacity:1;" d="M 147.859375 139.109375 C 148.636719 139.382812 149.34375 139.753906 150.054688 140.195312 C 151.40625 141.003906 152.585938 142.078125 153.53125 143.363281 C 155.113281 145.457031 156.058594 148.089844 156.058594 150.921875 L 164.019531 150.957031 L 164.019531 150.921875 C 164.019531 148.089844 164.964844 145.457031 166.554688 143.363281 C 167.53125 142.078125 168.710938 141.003906 170.066406 140.195312 C 170.738281 139.753906 171.476562 139.382812 172.25 139.109375 C 172.929688 138.84375 173.636719 138.640625 174.378906 138.507812 C 175.117188 138.367188 175.902344 138.304688 176.707031 138.304688 L 176.707031 136.886719 L 176.742188 130.269531 L 176.707031 130.269531 C 175.117188 130.269531 173.605469 129.96875 172.222656 129.460938 C 169.148438 128.28125 166.652344 125.988281 165.234375 123.050781 C 165 122.507812 164.761719 121.933594 164.597656 121.359375 C 164.21875 120.179688 164.019531 118.898438 164.019531 117.582031 L 156.058594 117.582031 C 156.058594 118.898438 155.855469 120.179688 155.484375 121.359375 C 155.316406 121.933594 155.078125 122.507812 154.84375 123.050781 C 153.425781 125.988281 150.933594 128.28125 147.894531 129.460938 C 146.507812 129.96875 144.992188 130.269531 143.40625 130.269531 L 143.40625 138.304688 C 144.214844 138.304688 144.992188 138.367188 145.738281 138.507812 C 146.476562 138.640625 147.183594 138.84375 147.859375 139.109375 M 151.808594 134.25 C 154.136719 133.074219 156.160156 131.417969 157.8125 129.429688 C 158.65625 128.382812 159.433594 127.234375 160.039062 126.019531 C 160.644531 127.234375 161.386719 128.382812 162.261719 129.429688 C 163.917969 131.453125 165.976562 133.101562 168.339844 134.292969 C 166.925781 134.996094 165.605469 135.835938 164.425781 136.886719 C 163.816406 137.390625 163.28125 137.964844 162.742188 138.539062 C 162.570312 138.710938 162.402344 138.90625 162.261719 139.109375 C 161.960938 139.445312 161.695312 139.820312 161.421875 140.195312 C 160.917969 140.9375 160.445312 141.671875 160.039062 142.484375 C 159.636719 141.671875 159.164062 140.898438 158.65625 140.195312 C 158.386719 139.820312 158.117188 139.445312 157.8125 139.109375 C 157.644531 138.90625 157.511719 138.710938 157.339844 138.539062 C 156.800781 137.964844 156.261719 137.390625 155.652344 136.886719 C 154.511719 135.871094 153.191406 134.996094 151.808594 134.25 "/>
<path style=" stroke:none;fill-rule:nonzero;fill:rgb(0%,30.196078%,62.745098%);fill-opacity:1;" d="M 62.652344 29.945312 C 65.929688 29.945312 68.964844 31.152344 71.230469 33.148438 C 73.957031 35.539062 75.675781 39.019531 75.675781 42.929688 L 84.316406 42.929688 C 84.316406 39.050781 86.039062 35.539062 88.773438 33.179688 C 91.0625 31.152344 94.070312 29.945312 97.378906 29.945312 L 97.378906 26.628906 L 62.652344 26.628906 Z M 83.644531 30.273438 C 82.796875 31.152344 82.054688 32.132812 81.417969 33.179688 C 80.875 34.089844 80.4375 35.039062 80.035156 36.046875 C 79.628906 35.039062 79.15625 34.089844 78.582031 33.179688 C 77.9375 32.132812 77.230469 31.1875 76.386719 30.273438 Z M 83.644531 30.273438 "/>
<path style=" stroke:none;fill-rule:nonzero;fill:rgb(0%,30.196078%,62.745098%);fill-opacity:1;" d="M 97.378906 21.269531 C 94.109375 21.269531 91.101562 20.054688 88.804688 18.058594 C 86.039062 15.664062 84.320312 12.1875 84.320312 8.273438 L 75.679688 8.273438 C 75.679688 12.1875 73.960938 15.664062 71.191406 18.058594 C 68.933594 20.054688 65.933594 21.269531 62.652344 21.269531 L 62.652344 24.609375 L 97.378906 24.609375 Z M 76.386719 20.933594 C 77.199219 20.054688 77.910156 19.074219 78.546875 18.058594 C 79.121094 17.152344 79.628906 16.171875 80.035156 15.160156 C 80.4375 16.171875 80.910156 17.152344 81.484375 18.058594 C 82.09375 19.074219 82.832031 20.054688 83.644531 20.960938 Z M 76.386719 20.933594 "/>
<path style=" stroke:none;fill-rule:nonzero;fill:rgb(0%,30.196078%,62.745098%);fill-opacity:1;" d="M 21.085938 39.957031 C 25.1875 33.886719 32.140625 29.921875 40.023438 29.921875 C 47.902344 29.921875 54.851562 33.886719 58.960938 39.957031 C 63.523438 46.726562 71.246094 51.15625 80.011719 51.203125 L 80.011719 51.226562 C 88.777344 51.175781 96.5 46.746094 101.066406 39.976562 C 105.175781 33.902344 112.121094 29.941406 120.003906 29.941406 C 127.882812 29.941406 134.832031 33.902344 138.9375 39.976562 C 143.503906 46.746094 151.226562 51.175781 159.992188 51.226562 L 159.992188 48.484375 C 152.132812 48.433594 145.195312 44.410156 141.125 38.328125 C 136.59375 31.554688 128.765625 27.195312 120.003906 27.195312 C 111.238281 27.195312 103.40625 31.554688 98.878906 38.328125 C 94.808594 44.410156 87.867188 48.433594 80.011719 48.484375 L 80.011719 48.46875 C 72.15625 48.414062 65.214844 44.398438 61.148438 38.308594 C 56.617188 31.535156 48.78125 27.179688 40.023438 27.179688 C 31.257812 27.179688 23.425781 31.535156 18.894531 38.308594 C 14.828125 44.398438 7.890625 48.414062 0.03125 48.46875 L 0.03125 51.203125 C 8.796875 51.15625 16.515625 46.726562 21.085938 39.957031 "/>
<path style=" stroke:none;fill-rule:nonzero;fill:rgb(0%,30.196078%,62.745098%);fill-opacity:1;" d="M 199.953125 138.578125 L 199.953125 135.832031 C 191.1875 135.882812 183.460938 140.3125 178.894531 147.078125 C 174.789062 153.15625 167.839844 157.117188 159.964844 157.117188 C 152.078125 157.117188 145.132812 153.15625 141.03125 147.078125 C 136.457031 140.3125 128.734375 135.882812 119.972656 135.832031 C 111.207031 135.882812 103.488281 140.3125 98.914062 147.078125 C 94.816406 153.15625 87.863281 157.117188 79.980469 157.117188 C 72.101562 157.117188 65.152344 153.15625 61.050781 147.078125 C 56.480469 140.3125 48.753906 135.882812 39.992188 135.832031 L 39.992188 138.578125 C 47.847656 138.621094 54.789062 142.644531 58.859375 148.734375 C 63.386719 155.5 71.222656 159.859375 79.980469 159.859375 C 88.742188 159.859375 96.582031 155.5 101.105469 148.734375 C 105.175781 142.644531 112.117188 138.621094 119.972656 138.578125 C 127.828125 138.621094 134.769531 142.644531 138.839844 148.734375 C 143.363281 155.5 151.203125 159.859375 159.964844 159.859375 C 168.722656 159.859375 176.554688 155.5 181.085938 148.734375 C 185.160156 142.644531 192.09375 138.621094 199.953125 138.578125 "/>
<path style=" stroke:none;fill-rule:nonzero;fill:rgb(0%,30.196078%,62.745098%);fill-opacity:1;" d="M 61.042969 12.855469 C 65.148438 6.777344 72.097656 2.816406 79.976562 2.816406 C 87.851562 2.816406 94.804688 6.777344 98.910156 12.855469 C 103.480469 19.621094 111.203125 24.054688 119.964844 24.101562 L 119.964844 21.359375 C 112.109375 21.308594 105.175781 17.289062 101.105469 11.207031 C 96.574219 4.433594 88.738281 0.078125 79.976562 0.078125 C 71.214844 0.078125 63.382812 4.433594 58.851562 11.207031 C 54.785156 17.289062 47.847656 21.308594 39.988281 21.359375 L 39.988281 24.101562 C 48.753906 24.054688 56.46875 19.621094 61.042969 12.855469 "/>
<path style=" stroke:none;fill-rule:nonzero;fill:rgb(0%,30.196078%,62.745098%);fill-opacity:1;" d="M 91.894531 125.539062 C 90.257812 125.539062 88.925781 126.875 88.925781 128.515625 C 88.925781 130.160156 90.257812 131.488281 91.894531 131.488281 C 93.539062 131.488281 94.871094 130.160156 94.871094 128.515625 C 94.871094 126.875 93.539062 125.539062 91.894531 125.539062 "/>
<path style=" stroke:none;fill-rule:nonzero;fill:rgb(0%,30.196078%,62.745098%);fill-opacity:1;" d="M 67.667969 143.476562 C 69.308594 143.476562 70.640625 142.148438 70.640625 140.496094 C 70.640625 138.855469 69.308594 137.527344 67.667969 137.527344 C 66.023438 137.527344 64.695312 138.855469 64.695312 140.496094 C 64.695312 142.148438 66.023438 143.476562 67.667969 143.476562 "/>
<path style=" stroke:none;fill-rule:nonzero;fill:rgb(0%,30.196078%,62.745098%);fill-opacity:1;" d="M 152.902344 77.246094 L 152.902344 74.660156 L 147.453125 77.246094 L 147.453125 89.558594 L 152.902344 92.652344 L 152.902344 89.015625 L 149.988281 87.320312 L 149.988281 78.53125 Z M 152.902344 77.246094 "/>
<path style=" stroke:none;fill-rule:nonzero;fill:rgb(0%,30.196078%,62.745098%);fill-opacity:1;" d="M 165.292969 81.246094 L 165.292969 74.660156 L 154.90625 74.640625 L 154.925781 93.636719 L 160.109375 96.46875 L 165.191406 93.636719 L 165.191406 82.707031 L 160.089844 82.675781 L 160.089844 84.613281 L 162.648438 84.640625 L 162.648438 92.023438 L 160.109375 93.246094 L 157.554688 91.734375 L 157.550781 76.96875 L 162.625 76.96875 L 162.625 81.246094 Z M 165.292969 81.246094 "/>
<path style=" stroke:none;fill-rule:nonzero;fill:rgb(0%,30.196078%,62.745098%);fill-opacity:1;" d="M 167.332031 74.746094 L 167.332031 93.027344 L 173.253906 89.5625 L 173.253906 77.609375 L 171.117188 76.542969 L 171.117188 87.875 L 169.664062 88.632812 L 169.664062 75.863281 Z M 167.332031 74.746094 "/>
<path style=" stroke:none;fill-rule:nonzero;fill:rgb(0%,30.196078%,62.745098%);fill-opacity:1;" d="M 175.246094 80.605469 L 184.34375 75.980469 L 160.191406 64.226562 L 136.039062 75.980469 L 145.269531 80.640625 L 145.269531 77.507812 L 142.457031 75.980469 L 160.191406 67.359375 L 177.910156 75.980469 L 175.265625 77.480469 Z M 175.246094 80.605469 "/>
<path style=" stroke:none;fill-rule:nonzero;fill:rgb(0%,30.196078%,62.745098%);fill-opacity:1;" d="M 124.566406 116.652344 L 124.566406 116.648438 L 133.960938 116.648438 C 135.800781 116.648438 137.230469 116.140625 138.183594 115.097656 C 139.136719 114.054688 139.601562 112.402344 139.601562 110.394531 C 139.601562 108.285156 139.175781 106.742188 138.261719 105.792969 C 137.425781 104.941406 136.121094 104.535156 134.390625 104.535156 L 132.128906 104.535156 C 131.625 104.535156 131.171875 104.171875 130.980469 103.941406 C 130.777344 103.683594 130.660156 103.324219 130.660156 102.824219 C 130.660156 102.039062 130.851562 101.652344 131.191406 101.394531 C 131.457031 101.175781 131.90625 101.046875 132.558594 101.046875 L 138.90625 101.046875 L 138.90625 96.605469 L 131.933594 96.605469 C 130.082031 96.605469 128.652344 97.128906 127.699219 98.195312 C 126.738281 99.257812 126.277344 100.726562 126.277344 102.777344 C 126.277344 104.71875 126.714844 106.417969 127.628906 107.433594 C 128.542969 108.441406 129.90625 108.933594 131.664062 108.933594 L 133.542969 108.933594 C 134.277344 108.929688 134.664062 109.058594 134.867188 109.253906 C 135.074219 109.464844 135.222656 109.828125 135.242188 110.53125 C 135.242188 111.085938 135.082031 111.582031 134.777344 111.832031 C 134.472656 112.085938 133.988281 112.234375 133.296875 112.238281 L 124.566406 112.238281 L 124.566406 96.605469 L 120.292969 96.605469 L 120.292969 104.21875 L 116.160156 104.21875 L 116.160156 96.605469 L 107.984375 96.605469 C 107.226562 96.605469 106.542969 96.652344 105.933594 96.742188 C 104.761719 96.914062 103.742188 97.296875 102.886719 97.902344 C 102.445312 98.210938 102.070312 98.554688 101.769531 98.9375 C 101.023438 99.90625 100.542969 101.257812 100.3125 102.992188 C 100.1875 103.960938 100.121094 105.421875 100.121094 107.386719 L 100.121094 116.652344 L 104.40625 116.652344 L 104.40625 108.988281 L 110.128906 108.988281 L 110.128906 104.441406 L 104.414062 104.441406 C 104.460938 103.355469 104.75 102.570312 105.230469 102.054688 C 105.761719 101.488281 106.5625 101.1875 107.726562 101.179688 L 111.886719 101.179688 L 111.886719 116.652344 L 116.160156 116.652344 L 116.160156 108.824219 L 120.292969 108.824219 L 120.292969 116.652344 Z M 124.566406 116.652344 "/>
<path style=" stroke:none;fill-rule:nonzero;fill:rgb(0%,30.196078%,62.745098%);fill-opacity:1;" d="M 249.339844 89.304688 L 249.339844 91.898438 L 254.636719 91.898438 L 254.636719 67.90625 L 237.324219 67.90625 L 237.324219 74.585938 L 230.644531 74.585938 L 230.644531 67.90625 L 225.347656 67.90625 L 225.347656 91.898438 L 242.660156 91.898438 L 242.660156 85.253906 L 249.339844 85.253906 Z M 242.660156 72.558594 L 249.339844 72.558594 L 249.339844 74.585938 L 242.660156 74.585938 Z M 249.339844 80.726562 L 242.660156 80.726562 L 242.660156 78.707031 L 249.339844 78.707031 Z M 230.644531 78.707031 L 237.324219 78.707031 L 237.324219 80.726562 L 230.644531 80.726562 Z M 237.324219 87.277344 L 230.644531 87.277344 L 230.644531 85.253906 L 237.324219 85.253906 Z M 237.324219 87.277344 "/>
<path style=" stroke:none;fill-rule:nonzero;fill:rgb(0%,30.196078%,62.745098%);fill-opacity:1;" d="M 215.316406 98.832031 L 215.316406 94.089844 L 184.609375 94.089844 L 184.609375 98.832031 L 197.253906 98.832031 L 197.253906 115.464844 L 184.609375 115.464844 L 184.609375 120.132812 L 215.316406 120.132812 L 215.316406 115.464844 L 202.667969 115.464844 L 202.667969 98.832031 Z M 215.316406 98.832031 "/>
<path style=" stroke:none;fill-rule:nonzero;fill:rgb(0%,30.196078%,62.745098%);fill-opacity:1;" d="M 159.992188 54.328125 C 151.226562 54.382812 143.503906 58.816406 138.9375 65.578125 C 134.832031 71.652344 127.882812 75.617188 120.003906 75.617188 C 112.121094 75.617188 105.175781 71.652344 101.066406 65.578125 C 96.5 58.816406 88.777344 54.382812 80.011719 54.328125 C 71.246094 54.382812 63.523438 58.816406 58.960938 65.578125 C 54.851562 71.652344 47.902344 75.617188 40.023438 75.617188 C 32.140625 75.617188 25.1875 71.652344 21.085938 65.578125 C 16.515625 58.816406 8.796875 54.382812 0.03125 54.328125 L 0.03125 57.074219 C 7.890625 57.125 14.828125 61.144531 18.894531 67.230469 C 23.425781 74.003906 31.257812 78.359375 40.023438 78.359375 C 48.78125 78.359375 56.617188 74.003906 61.148438 67.230469 C 65.214844 61.144531 72.15625 57.125 80.011719 57.074219 C 87.867188 57.125 94.808594 61.144531 98.878906 67.230469 C 103.40625 74.003906 111.238281 78.359375 120.003906 78.359375 C 128.765625 78.359375 136.59375 74.003906 141.125 67.230469 C 145.195312 61.144531 152.132812 57.125 159.992188 57.074219 "/>
<path style=" stroke:none;fill-rule:nonzero;fill:rgb(0%,30.196078%,62.745098%);fill-opacity:1;" d="M 160.007812 57.078125 C 167.863281 57.132812 174.800781 61.148438 178.875 67.238281 C 183.40625 74.007812 191.234375 78.363281 199.996094 78.363281 C 208.761719 78.363281 216.589844 74.007812 221.121094 67.238281 C 225.191406 61.15625 232.117188 57.136719 239.972656 57.078125 L 239.972656 57.109375 C 247.855469 57.109375 254.808594 61.074219 258.910156 67.144531 C 263.476562 73.917969 271.195312 78.34375 279.960938 78.390625 L 279.960938 75.652344 C 272.109375 75.601562 265.167969 71.582031 261.101562 65.496094 C 256.570312 58.730469 248.746094 54.378906 239.992188 54.367188 L 239.992188 54.339844 C 231.222656 54.386719 223.496094 58.820312 218.929688 65.582031 C 214.824219 71.660156 207.878906 75.621094 199.996094 75.621094 C 192.117188 75.621094 185.167969 71.660156 181.058594 65.582031 C 176.496094 58.820312 168.769531 54.386719 160.007812 54.339844 "/>
<path style=" stroke:none;fill-rule:nonzero;fill:rgb(0%,30.196078%,62.745098%);fill-opacity:1;" d="M 240.011719 105.550781 C 248.777344 105.5 256.5 101.070312 261.070312 94.308594 C 265.171875 88.226562 272.121094 84.269531 280 84.269531 L 280 81.527344 C 271.242188 81.527344 263.40625 85.882812 258.878906 92.652344 C 254.8125 98.738281 247.871094 102.761719 240.011719 102.8125 "/>
<path style=" stroke:none;fill-rule:nonzero;fill:rgb(0%,30.196078%,62.745098%);fill-opacity:1;" d="M 45.125 104.25 L 39.929688 100.609375 L 34.730469 104.25 L 30.582031 107.148438 L 26.601562 109.953125 L 26.601562 116.464844 L 32.910156 120.886719 L 35.308594 122.539062 L 39.929688 125.78125 L 44.585938 122.539062 L 46.945312 120.886719 L 53.289062 116.464844 L 53.289062 109.953125 L 49.277344 107.148438 Z M 47.285156 112.25 L 47.285156 114.171875 L 44.144531 116.363281 L 39.929688 119.296875 L 35.710938 116.363281 L 32.570312 114.171875 L 32.570312 112.25 L 35.78125 110.019531 L 39.898438 107.148438 L 39.929688 107.121094 L 39.964844 107.148438 L 44.078125 110.019531 Z M 47.285156 112.25 "/>
<path style=" stroke:none;fill-rule:nonzero;fill:rgb(0%,30.196078%,62.745098%);fill-opacity:1;" d="M 53.289062 104.25 L 53.289062 97.804688 L 41.917969 89.84375 L 39.929688 88.453125 L 37.972656 89.84375 L 26.597656 97.804688 L 26.597656 104.28125 L 26.632812 104.25 L 35.710938 97.90625 L 39.929688 94.964844 L 44.144531 97.90625 L 53.257812 104.25 L 53.289062 104.28125 Z M 53.289062 104.25 "/>
<path style=" stroke:none;fill-rule:nonzero;fill:rgb(0%,30.196078%,62.745098%);fill-opacity:1;" d="M 218.917969 119.929688 C 214.8125 126 207.863281 129.96875 199.984375 129.96875 C 192.101562 129.96875 185.152344 126 181.046875 119.929688 C 176.480469 113.167969 168.757812 108.730469 159.996094 108.683594 L 159.996094 108.671875 C 151.226562 108.71875 143.507812 113.15625 138.9375 119.917969 C 134.832031 125.996094 127.882812 129.957031 120.003906 129.957031 C 112.121094 129.957031 105.171875 125.996094 101.066406 119.917969 C 96.5 113.15625 88.777344 108.71875 80.015625 108.671875 C 79.949219 108.671875 79.882812 108.6875 79.816406 108.6875 L 79.816406 111.425781 C 79.882812 111.425781 79.949219 111.414062 80.015625 111.414062 C 87.871094 111.460938 94.8125 115.484375 98.878906 121.574219 C 103.40625 128.339844 111.238281 132.699219 120.003906 132.699219 C 128.765625 132.699219 136.59375 128.339844 141.125 121.574219 C 145.191406 115.484375 152.132812 111.460938 159.996094 111.414062 L 159.996094 111.421875 C 167.851562 111.472656 174.789062 115.496094 178.855469 121.582031 C 183.386719 128.351562 191.222656 132.707031 199.984375 132.707031 C 208.746094 132.707031 216.578125 128.351562 221.105469 121.582031 C 225.171875 115.496094 232.117188 111.472656 239.96875 111.421875 L 239.96875 108.683594 C 231.207031 108.730469 223.488281 113.167969 218.917969 119.929688 "/>
<path style=" stroke:none;fill-rule:nonzero;fill:rgb(0%,30.196078%,62.745098%);fill-opacity:1;" d="M 221.105469 92.65625 C 216.578125 85.882812 208.742188 81.527344 199.984375 81.527344 C 191.21875 81.527344 183.390625 85.882812 178.855469 92.65625 C 174.789062 98.738281 167.851562 102.761719 159.996094 102.8125 C 152.132812 102.761719 145.195312 98.738281 141.125 92.65625 C 136.59375 85.882812 128.761719 81.527344 120.003906 81.527344 C 111.238281 81.527344 103.40625 85.882812 98.878906 92.65625 C 94.8125 98.738281 87.867188 102.761719 80.015625 102.8125 C 79.945312 102.8125 79.882812 102.800781 79.816406 102.796875 L 79.816406 105.539062 C 79.882812 105.539062 79.945312 105.550781 80.015625 105.550781 C 88.777344 105.503906 96.5 101.070312 101.066406 94.308594 C 105.175781 88.230469 112.121094 84.269531 120.003906 84.269531 C 127.882812 84.269531 134.832031 88.230469 138.9375 94.308594 C 143.503906 101.070312 151.226562 105.503906 159.996094 105.550781 C 168.761719 105.503906 176.480469 101.070312 181.046875 94.308594 C 185.148438 88.230469 192.097656 84.269531 199.984375 84.269531 C 207.863281 84.269531 214.8125 88.230469 218.914062 94.308594 C 223.484375 101.070312 231.207031 105.503906 239.972656 105.550781 L 239.972656 102.8125 C 232.117188 102.761719 225.171875 98.738281 221.105469 92.65625 "/>
<path style=" stroke:none;fill-rule:nonzero;fill:rgb(0%,30.196078%,62.745098%);fill-opacity:1;" d="M 79.984375 108.667969 C 71.210938 108.722656 63.492188 113.15625 58.929688 119.917969 C 54.820312 125.992188 47.871094 129.960938 39.988281 129.960938 C 32.109375 129.960938 25.160156 125.992188 21.058594 119.917969 C 16.484375 113.15625 8.765625 108.722656 0 108.667969 L 0 111.414062 C 7.859375 111.460938 14.796875 115.484375 18.863281 121.570312 C 23.394531 128.34375 31.230469 132.699219 39.988281 132.699219 C 48.75 132.699219 56.585938 128.34375 61.113281 121.570312 C 65.1875 115.484375 72.121094 111.460938 79.984375 111.414062 "/>
<path style=" stroke:none;fill-rule:nonzero;fill:rgb(0%,30.196078%,62.745098%);fill-opacity:1;" d="M 79.984375 102.8125 C 72.121094 102.757812 65.1875 98.742188 61.113281 92.652344 C 56.585938 85.878906 48.75 81.527344 39.988281 81.527344 C 31.230469 81.527344 23.394531 85.878906 18.863281 92.652344 C 14.796875 98.742188 7.859375 102.757812 0 102.8125 L 0 105.550781 C 8.765625 105.5 16.484375 101.070312 21.058594 94.308594 C 25.160156 88.226562 32.109375 84.265625 39.988281 84.265625 C 47.871094 84.265625 54.820312 88.226562 58.929688 94.308594 C 63.492188 101.070312 71.210938 105.5 79.984375 105.550781 "/>
</g>
</svg>
