<?xml version="1.0" encoding="utf-8"?>
<!-- Generator: Adobe Illustrator 25.4.1, SVG Export Plug-In . SVG Version: 6.00 Build 0)  -->
<svg version="1.1" id="圖層_1" xmlns="http://www.w3.org/2000/svg" xmlns:xlink="http://www.w3.org/1999/xlink" x="0px" y="0px"
	 viewBox="0 0 515 447" style="enable-background:new 0 0 515 447;" xml:space="preserve">
<style type="text/css">
	.st0{fill:#4FBDFF;stroke:#143063;stroke-width:2;stroke-miterlimit:10;}
	.st1{fill:#8BFFA5;fill-opacity:0.65;stroke:#143063;stroke-width:2;stroke-miterlimit:10;}
	.st2{fill:#A5DBF7;stroke:#143063;stroke-width:2;stroke-miterlimit:10;}
	.st3{fill:#FFFFFF;stroke:#143063;stroke-width:2;stroke-miterlimit:10;}
	.st4{fill:#7DBCE9;}
	.st5{fill:none;stroke:#D9EFFF;stroke-width:2;}
	.st6{fill:#D5EEFF;}
	.st7{fill:none;stroke:#143063;stroke-width:6;stroke-linecap:round;}
</style>
<path class="st0" d="M151.6,83l8.8-35.3l72.8-40.8c0,0,28.1-16,87.2,5l131.3,47.4c0,0,12.7,2.8,9.9,17.1c0,0-7.7,41.4-4.4,81.7
	c0,0,12.7,64.5,16,75c0,0-64,29.8-76.1,40.3c0,0-87.7,72.3-153.9,39.2c0,0-77.8-46.3-111.4-139.6C131.8,172.9,140.6,126,151.6,83z"
	/>
<path class="st1" d="M104.4,142.5l8.8-35.3l72.8-40.8c0,0,28.1-16,87.2,5l131.3,47.4c0,0,12.7,2.8,9.9,17.1c0,0-7.7,41.4-4.4,81.7
	c0,0,12.7,64.5,16,75c0,0-64,29.8-76.1,40.3c0,0-87.7,72.3-153.9,39.2c0,0-77.8-46.3-111.4-139.6C84.6,232.5,93.4,185.6,104.4,142.5
	z"/>
<path class="st2" d="M58.3,207.3l8.8-35.3l72.8-40.8c0,0,28.1-16,87.2,5l131.3,47.4c0,0,12.7,2.8,9.9,17.1c0,0-7.7,41.4-4.4,81.7
	c0,0,12.7,64.5,16,75c0,0-64,29.8-76.1,40.3c0,0-87.7,72.3-153.9,39.2c0,0-77.8-46.3-111.4-139.6C38.5,297.2,47.3,250.3,58.3,207.3z
	"/>
<path class="st3" d="M385.2,182.7c-14.9,12.1-18.1,7.3-18.1,7.3c3.6,6.3-0.9,16.7,0.7,16.8C387.2,208.3,404,191,404,191
	c11.6-13.2,33-18.8,33-18.8c45.1-10.5,53.7,28.1,53.7,28.1c19.8,55.4-8.8,107-8.8,107c-30.1,51.7-75.3,43-105.2,35.8l3.2,14
	C504,397.8,513.3,255.7,513.3,255.7c6.1-69.4-32.7-92.4-32.7-92.4C427.7,135.8,385.2,182.7,385.2,182.7z"/>
<path class="st3" d="M77.8,166l-10.5,5.9c-16-10.1-27-10-35.6-4.5c-36.2,22.8-8,84.5,9.5,115.7L38,297.5
	c-82.7-133.1,1.8-145.1,1.8-145.1C67.7,149.6,77.8,166,77.8,166z"/>
<path class="st4" d="M81,220.6c0,0,57.4-38.8,251.6,25.8C332.5,246.4,155.1,135.7,81,220.6z"/>
<path class="st4" d="M58.9,260.2c0,0,90.5-41.9,263.1,13.8L58.9,260.2z"/>
<path class="st4" d="M41.2,287.6c0,0,89,121.3,199.5,63.1l124.6-56.7l2.7,17.6c0,0-85.2,61.9-134.4,90.2c0,0-54.7,43.2-124.7-16.1
	c0,0-17.5-10.5-69.5-88.7L41.2,287.6z"/>
<path class="st5" d="M41.6,288.1C72.4,328.4,154.2,398.5,241,350l124.3-55.2"/>
<path class="st5" d="M60.2,260c34.7-14.8,134.8-32.6,258.1,14 M82.3,219.8c13.6-23.2,86.3-66,250.4,25.3"/>
<path class="st6" d="M62,196.3c0,0,57.9-61.6,132.9-47.9c0,0,153.6,42.9,153.6,49.2c0,0-5.8,74.1,0,103.6l16.8-7.2
	c0,0-5.8-18.6-2.7-44.8c0,0,0-23.5,5-51.6c0,0,3-9.1-9-13.5l-132-47c0,0-63.7-24-94.5,0l-64.2,35.3L62,196.3z"/>
<path class="st7" d="M110,156.8c13.9-10.8,53.1-26.9,98-13l64,20.6"/>
</svg>
