<svg width="1108" height="595" viewBox="0 0 1108 595" fill="none" xmlns="http://www.w3.org/2000/svg">
<path d="M1108 0H0V595H1108V0Z" fill="#E5E5E5"/>
<path d="M1089 22H19V573H1089V22Z" fill="#F7F6F6"/>
<path d="M18 166.011C18 166.011 995.055 165.369 1089 173.827C1089 173.827 228.378 191.987 18 166.011Z" fill="#E5E5E5"/>
<path d="M19 296.01C19 296.01 995.143 295.459 1089 302.709C1089.04 302.709 229.182 318.275 19 296.01Z" fill="#E5E5E5"/>
<path d="M19 386.01C19 386.01 996.055 385.414 1090 393.268C1090 393.268 229.34 410.131 19 386.01Z" fill="#E5E5E5"/>
<circle cx="9" cy="59" r="5" fill="#F7F6F6"/>
<circle cx="9" cy="120" r="5" fill="#F7F6F6"/>
<circle cx="9" cy="181" r="5" fill="#F7F6F6"/>
<circle cx="9" cy="242" r="5" fill="#F7F6F6"/>
<circle cx="9" cy="303" r="5" fill="#F7F6F6"/>
<circle cx="9" cy="364" r="5" fill="#F7F6F6"/>
<circle cx="9" cy="486" r="5" fill="#F7F6F6"/>
<circle cx="9" cy="425" r="5" fill="#F7F6F6"/>
<circle cx="9" cy="547" r="5" fill="#F7F6F6"/>
<circle cx="533" cy="585" r="5" transform="rotate(90 533 585)" fill="#F7F6F6"/>
<circle cx="716" cy="585" r="5" transform="rotate(90 716 585)" fill="#F7F6F6"/>
<circle cx="899" cy="585" r="5" transform="rotate(90 899 585)" fill="#F7F6F6"/>
<circle cx="594" cy="585" r="5" transform="rotate(90 594 585)" fill="#F7F6F6"/>
<circle cx="777" cy="585" r="5" transform="rotate(90 777 585)" fill="#F7F6F6"/>
<circle cx="960" cy="585" r="5" transform="rotate(90 960 585)" fill="#F7F6F6"/>
<circle cx="1021" cy="585" r="5" transform="rotate(90 1021 585)" fill="#F7F6F6"/>
<circle cx="1082" cy="585" r="5" transform="rotate(90 1082 585)" fill="#F7F6F6"/>
<circle cx="655" cy="585" r="5" transform="rotate(90 655 585)" fill="#F7F6F6"/>
<circle cx="838" cy="585" r="5" transform="rotate(90 838 585)" fill="#F7F6F6"/>
<circle cx="472" cy="585" r="5" transform="rotate(90 472 585)" fill="#F7F6F6"/>
<circle cx="411" cy="585" r="5" transform="rotate(90 411 585)" fill="#F7F6F6"/>
<circle cx="350" cy="585" r="5" transform="rotate(90 350 585)" fill="#F7F6F6"/>
<circle cx="289" cy="585" r="5" transform="rotate(90 289 585)" fill="#F7F6F6"/>
<circle cx="228" cy="585" r="5" transform="rotate(90 228 585)" fill="#F7F6F6"/>
<circle cx="106" cy="585" r="5" transform="rotate(90 106 585)" fill="#F7F6F6"/>
<circle cx="167" cy="585" r="5" transform="rotate(90 167 585)" fill="#F7F6F6"/>
<circle cx="45" cy="585" r="5" transform="rotate(90 45 585)" fill="#F7F6F6"/>
<path d="M220 49H820" stroke="#143063" stroke-width="8" stroke-linecap="round" stroke-linejoin="round"/>
</svg>
