<svg width="1023" height="595" viewBox="0 0 1023 595" fill="none" xmlns="http://www.w3.org/2000/svg">
<path d="M1021 0H0V595H1021V0Z" fill="#E5E5E5"/>
<path d="M1021.35 22H18V572.506H1021.35V22Z" fill="#F7F6F6"/>
<path d="M16.7754 166.011C16.7754 166.011 933.074 165.387 1021.18 173.606C1021.18 173.606 214.072 191.256 16.7754 166.011Z" fill="#E5E5E5"/>
<path d="M17.8232 295.549C17.8232 295.549 933.165 294.973 1021.18 302.56C1021.21 302.56 214.914 318.851 17.8232 295.549Z" fill="#E5E5E5"/>
<path d="M17.8232 385.556C17.8232 385.556 934.122 384.932 1022.22 393.151C1022.22 393.151 215.084 410.801 17.8232 385.556Z" fill="#E5E5E5"/>
<circle cx="9" cy="48" r="5" fill="#F7F6F6"/>
<circle cx="9" cy="109" r="5" fill="#F7F6F6"/>
<circle cx="9" cy="170" r="5" fill="#F7F6F6"/>
<circle cx="9" cy="234" r="5" fill="#F7F6F6"/>
<circle cx="9" cy="295" r="5" fill="#F7F6F6"/>
<circle cx="9" cy="358" r="5" fill="#F7F6F6"/>
<circle cx="9" cy="480" r="5" fill="#F7F6F6"/>
<circle cx="9" cy="419" r="5" fill="#F7F6F6"/>
<circle cx="9" cy="541" r="5" fill="#F7F6F6"/>
<circle cx="533" cy="585" r="5" transform="rotate(90 533 585)" fill="#F7F6F6"/>
<circle cx="716" cy="585" r="5" transform="rotate(90 716 585)" fill="#F7F6F6"/>
<circle cx="899" cy="585" r="5" transform="rotate(90 899 585)" fill="#F7F6F6"/>
<circle cx="594" cy="585" r="5" transform="rotate(90 594 585)" fill="#F7F6F6"/>
<circle cx="777" cy="585" r="5" transform="rotate(90 777 585)" fill="#F7F6F6"/>
<circle cx="960" cy="585" r="5" transform="rotate(90 960 585)" fill="#F7F6F6"/>
<circle cx="655" cy="585" r="5" transform="rotate(90 655 585)" fill="#F7F6F6"/>
<circle cx="838" cy="585" r="5" transform="rotate(90 838 585)" fill="#F7F6F6"/>
<circle cx="472" cy="585" r="5" transform="rotate(90 472 585)" fill="#F7F6F6"/>
<circle cx="411" cy="585" r="5" transform="rotate(90 411 585)" fill="#F7F6F6"/>
<circle cx="350" cy="585" r="5" transform="rotate(90 350 585)" fill="#F7F6F6"/>
<circle cx="289" cy="585" r="5" transform="rotate(90 289 585)" fill="#F7F6F6"/>
<circle cx="228" cy="585" r="5" transform="rotate(90 228 585)" fill="#F7F6F6"/>
<circle cx="106" cy="585" r="5" transform="rotate(90 106 585)" fill="#F7F6F6"/>
<circle cx="167" cy="585" r="5" transform="rotate(90 167 585)" fill="#F7F6F6"/>
<circle cx="45" cy="585" r="5" transform="rotate(90 45 585)" fill="#F7F6F6"/>
<path d="M220 49H820" stroke="#143063" stroke-width="8" stroke-linecap="round" stroke-linejoin="round"/>
</svg>
